PathFileType	4	(X/Y/Z)	E:\3-PhD\Data\MocapData\ElaboratedData\009\pre\dynamicElaborations\RunN1\RunN1.trc
DataRate	CameraRate	NumFrames	NumMarkers	Units	OrigDataRate	DataStartFrame
200	200	4	54	mm	200	557
Frame#	Time	FHD			LBHD			RBHD			C7			T10			CLAV			LSHO			LUUPA			LMUPA			LDUPA			LLEP			LMEP			LRAD			LUL			LRFIN			RSHO			RUPA1			RMUPA			RDUPA			RLEP			RMEP			RRAD			RUL			RUFIN			RASI			USACR			LSACR			RSACR			LTHI1			LTHI2			LTHI3			LTHI4			LTIB1			LTIB2			LTIB3			LTIB4			LLMAL			LHEE			LMT1			LMT2			RTHI			RTHI2			RTHI3			RTHI4			RLFC			RTIB1			RTIB2			RTIB3			RTIB4			RLMAL			RHEE			RMT1			RMT2			RMT5		
		X1	Y1	Z1	X2	Y2	Z2	X3	Y3	Z3	X4	Y4	Z4	X5	Y5	Z5	X6	Y6	Z6	X7	Y7	Z7	X8	Y8	Z8	X9	Y9	Z9	X10	Y10	Z10	X11	Y11	Z11	X12	Y12	Z12	X13	Y13	Z13	X14	Y14	Z14	X15	Y15	Z15	X16	Y16	Z16	X17	Y17	Z17	X18	Y18	Z18	X19	Y19	Z19	X20	Y20	Z20	X21	Y21	Z21	X22	Y22	Z22	X23	Y23	Z23	X24	Y24	Z24	X25	Y25	Z25	X26	Y26	Z26	X27	Y27	Z27	X28	Y28	Z28	X29	Y29	Z29	X30	Y30	Z30	X31	Y31	Z31	X32	Y32	Z32	X33	Y33	Z33	X34	Y34	Z34	X35	Y35	Z35	X36	Y36	Z36	X37	Y37	Z37	X38	Y38	Z38	X39	Y39	Z39	X40	Y40	Z40	X41	Y41	Z41	X42	Y42	Z42	X43	Y43	Z43	X44	Y44	Z44	X45	Y45	Z45	X46	Y46	Z46	X47	Y47	Z47	X48	Y48	Z48	X49	Y49	Z49	X50	Y50	Z50	X51	Y51	Z51	X52	Y52	Z52	X53	Y53	Z53	X54	Y54	Z54	

585	2.920000	-2243.717205	1490.506414	384.422263	-2408.563980	1559.169904	292.746279	-2377.770930	1534.978205	414.463276	-2505.754216	1438.559852	343.235116	-2708.642199	1155.055316	405.920105	-2418.964024	1293.924560	325.811885	-2453.370297	1363.335912	184.769792	-2585.163533	1236.323942	87.790189	-2563.930885	1193.590209	91.201036	-2619.020507	1178.590313	71.338676	-2687.855364	1079.392101	56.712054	-2712.048967	1069.939325	125.947441	-2517.996083	898.362006	127.700389	-2562.126011	845.519357	98.301444	-2459.766589	865.885774	99.045778	-2417.671697	1383.408576	488.486255	-2507.237663	1268.922590	603.422978	-2501.417271	1223.111060	591.877253	-2542.871687	1220.049356	636.969289	-2619.367725	1115.866412	682.631771	-2663.038087	1107.661727	625.679441	-2487.398897	895.533427	619.118360	-2530.657790	869.862228	666.706150	-2427.800811	856.872905	666.248334	-2599.849620	918.753544	482.221480	-2753.848483	1071.944013	421.190981	-2775.082910	1045.674600	394.884732	-2757.948952	1039.067988	450.639630	-2662.853842	730.001277	175.789099	-2604.023796	668.574473	169.928905	-2560.222393	687.492146	175.165757	-2610.581016	608.335480	182.553972	-2533.107498	339.669592	245.519961	-2605.601243	307.707612	207.995693	-2567.737225	297.654704	226.506420	-2582.343210	225.331628	269.640144	-2678.342557	95.772718	285.111646	-2754.760383	58.250937	340.828952	-2530.828582	60.320565	343.912973	-2533.824310	56.004443	297.814823	-2675.161151	674.436592	554.195400	-2644.619834	617.537316	550.096230	-2613.393722	613.816521	537.650196	-2683.241810	542.686698	542.172507	-2688.887254	447.901946	518.861128	-2882.722513	432.122879	456.725458	-2946.152215	514.758353	487.893181	-2955.195511	472.609689	467.817611	-3000.734878	476.259390	432.784295	-3079.720495	557.344998	461.846634	-3078.464537	635.241337	405.971607	-3191.383014	440.282438	366.069172	-3198.196462	437.108412	405.746525	-3209.906172	487.973498	459.556327	
586	2.925000	-2217.619788	1489.302664	384.279718	-2382.325290	1557.191421	291.852229	-2352.016422	1533.293716	413.708599	-2479.867001	1436.083041	342.082789	-2681.377120	1151.071657	405.997374	-2391.778295	1291.828000	325.497407	-2426.650954	1361.098872	184.738104	-2551.100253	1227.429606	87.481548	-2527.831446	1185.829490	91.978517	-2581.484827	1167.844245	70.837707	-2645.188708	1064.754606	56.176540	-2670.087042	1054.082553	124.918237	-2465.477176	896.630619	132.768885	-2505.305591	840.814605	103.079468	-2404.803919	868.211672	105.392795	-2392.113861	1380.989522	488.578305	-2485.339488	1268.984132	603.764479	-2480.680010	1222.948712	592.619844	-2522.440331	1221.363745	637.152623	-2603.110335	1120.401628	683.074347	-2646.484611	1113.072790	625.974581	-2484.309434	890.599954	626.845183	-2529.552737	869.161152	675.112307	-2427.545702	849.944529	675.841995	-2571.597161	914.836428	479.859802	-2726.359457	1068.929456	421.634283	-2747.793931	1043.068700	395.050883	-2730.435995	1035.621758	450.624590	-2642.499260	725.984236	175.806994	-2585.625724	662.761022	169.995401	-2541.207703	680.152647	174.940509	-2594.183756	602.846941	182.734412	-2523.347421	332.125845	247.437732	-2596.681893	302.477750	209.566875	-2559.273068	291.168750	228.594237	-2577.298992	219.775657	272.318612	-2678.179613	94.675896	287.037642	-2755.459694	57.064194	342.267335	-2531.429488	59.454377	345.212084	-2534.467698	55.713279	299.052158	-2637.491397	672.260462	553.604585	-2604.458688	616.715087	549.808988	-2573.162804	614.199162	536.877883	-2639.676743	540.274531	542.304502	-2641.363098	446.125565	518.759802	-2834.542799	431.159152	456.087333	-2897.848966	513.569989	487.840274	-2906.931878	471.600618	467.270214	-2952.430912	475.663828	432.306706	-3030.451020	556.475081	461.081583	-3031.035586	635.073460	405.922880	-3142.276829	438.857134	367.166901	-3148.225253	435.498438	407.034229	-3159.798872	485.990104	460.749008	
587	2.930000	-2191.477687	1488.237990	384.218267	-2356.051529	1555.298983	291.029367	-2326.215666	1531.740731	413.029605	-2453.952671	1433.709381	341.124012	-2654.194546	1147.156342	406.112262	-2364.557956	1289.823201	325.372237	-2399.781066	1358.967679	184.868811	-2516.428204	1219.139412	87.360692	-2491.223771	1178.744870	92.953805	-2543.224101	1157.907302	70.486678	-2601.541212	1051.164477	55.800897	-2627.132993	1039.116387	123.995903	-2412.902959	896.729327	137.908287	-2448.132320	838.235075	107.890678	-2350.033882	872.647909	111.764582	-2366.567851	1378.819563	488.828780	-2463.677437	1269.609060	604.289439	-2460.048646	1223.346224	593.851373	-2502.390190	1223.406923	637.508179	-2586.740804	1125.478469	683.484818	-2629.769004	1118.982584	626.226866	-2480.872115	887.891743	633.992148	-2527.718678	870.544244	682.745186	-2426.880625	845.627836	684.626480	-2543.518634	910.967457	477.293732	-2698.991733	1066.076579	421.948684	-2720.637443	1040.597899	395.111361	-2703.052045	1032.366534	450.499772	-2622.551199	722.158428	175.925819	-2567.739977	657.141398	170.205641	-2522.733316	672.960935	174.719634	-2578.270421	597.605767	183.143896	-2514.075868	325.304233	249.069764	-2588.281774	297.977573	211.061403	-2551.323189	285.461216	230.488339	-2572.419227	215.002984	274.635860	-2677.863597	94.220762	288.748816	-2755.985929	56.767735	343.701131	-2531.869401	59.005506	346.154495	-2535.006452	55.680916	299.981164	-2599.606556	670.772907	552.861397	-2564.057136	616.749811	549.276113	-2532.776695	615.469785	535.808264	-2595.676887	538.816755	542.166247	-2593.344923	445.455663	518.389015	-2785.944872	430.219847	455.358311	-2849.557936	512.034772	487.686402	-2858.459794	470.224901	466.678877	-2903.959118	474.429816	431.811117	-2981.425165	554.559635	460.324524	-2984.337059	633.788951	405.885381	-3092.796027	435.752478	368.460637	-3097.722012	432.271208	408.660079	-3109.479877	482.299524	462.098456	
588	2.935000	-2165.260436	1487.321751	384.229867	-2329.711030	1553.549531	290.301583	-2300.325593	1530.348922	412.441159	-2427.976278	1431.484121	340.364241	-2627.058439	1143.427900	406.242541	-2337.296537	1287.956809	325.438231	-2372.712997	1357.014803	185.164980	-2481.221676	1211.606756	87.441790	-2454.190238	1172.484296	94.099547	-2504.352637	1148.945127	70.306572	-2557.036027	1038.810894	55.623566	-2583.276819	1025.259247	123.248409	-2360.456549	898.746221	143.097203	-2390.827504	837.907638	112.707766	-2295.674729	879.260404	118.128047	-2341.016453	1376.963702	489.240965	-2442.210572	1270.869905	604.953371	-2439.478404	1224.371848	595.501260	-2482.665962	1226.237321	637.945656	-2570.222825	1131.141366	683.845279	-2612.833061	1125.431390	626.405792	-2476.851505	887.272190	640.533856	-2525.010220	873.811357	689.573173	-2425.565648	843.709022	692.589075	-2515.580339	907.251762	474.538772	-2671.703720	1063.456923	422.204009	-2693.553213	1038.320065	395.140965	-2675.713748	1029.372699	450.345636	-2602.971907	718.618746	176.160862	-2550.315940	651.833021	170.549465	-2504.764111	666.092355	174.469957	-2562.714938	592.727486	183.831565	-2505.280446	319.157338	250.380247	-2580.344734	294.188864	212.352738	-2543.884475	280.500232	232.118734	-2567.693684	210.966934	276.468109	-2677.386506	94.337116	290.137331	-2756.320531	57.306823	344.981848	-2532.135969	58.825172	346.757778	-2535.404769	55.767134	300.617013	-2561.582275	670.077794	551.970791	-2523.504480	617.755837	548.499995	-2492.327951	617.747402	534.463180	-2551.341230	538.444602	541.730986	-2544.944278	446.002611	517.737701	-2737.018212	429.375728	454.526088	-2801.365994	510.215933	487.400040	-2809.866547	468.543455	466.025872	-2855.407217	472.600526	431.282803	-2932.780565	551.649761	459.607764	-2938.491103	631.373823	405.842440	-3042.973107	430.997835	369.883858	-3046.756269	427.450467	410.523000	-3059.007814	476.925494	463.559918	
